solid ASCII
  facet normal 0.000000e+00 -1.000000e+00 0.000000e+00
    outer loop
      vertex   -4.000000e+00 -3.000000e+00 -1.000000e+01
      vertex   2.000000e+00 -3.000000e+00 -4.603256e+00
      vertex   7.183855e-01 -3.000000e+00 -1.921863e+00
    endloop
  endfacet
  facet normal 0.000000e+00 -1.000000e+00 0.000000e+00
    outer loop
      vertex   2.000000e+00 -3.000000e+00 -1.000000e+01
      vertex   2.000000e+00 -3.000000e+00 -4.603256e+00
      vertex   -4.000000e+00 -3.000000e+00 -1.000000e+01
    endloop
  endfacet
  facet normal 0.000000e+00 -1.000000e+00 0.000000e+00
    outer loop
      vertex   7.183855e-01 -3.000000e+00 -1.921863e+00
      vertex   -4.000000e+00 -3.000000e+00 -4.192104e+00
      vertex   -4.000000e+00 -3.000000e+00 -1.000000e+01
    endloop
  endfacet
  facet normal -0.000000e+00 -1.000000e+00 0.000000e+00
    outer loop
      vertex   7.183855e-01 -3.000000e+00 -1.921863e+00
      vertex   -2.820549e+00 -3.000000e+00 -1.629169e+00
      vertex   -4.000000e+00 -3.000000e+00 -4.192104e+00
    endloop
  endfacet
  facet normal 1.000000e+00 0.000000e+00 0.000000e+00
    outer loop
      vertex   4.000000e+00 2.545739e+00 -3.501644e+00
      vertex   4.000000e+00 -1.000000e+00 -1.000000e+01
      vertex   4.000000e+00 3.000000e+00 -1.000000e+01
    endloop
  endfacet
  facet normal 1.000000e+00 0.000000e+00 0.000000e+00
    outer loop
      vertex   4.000000e+00 3.046715e-01 -1.412683e+00
      vertex   4.000000e+00 -1.000000e+00 -1.000000e+01
      vertex   4.000000e+00 2.545739e+00 -3.501644e+00
    endloop
  endfacet
  facet normal 9.930202e-01 -1.166062e-01 1.771599e-02
    outer loop
      vertex   3.826250e+00 -1.151825e+00 -1.260228e+00
      vertex   4.000000e+00 -1.000000e+00 -1.000000e+01
      vertex   4.000000e+00 3.046715e-01 -1.412683e+00
    endloop
  endfacet
  facet normal 7.251984e-01 6.119446e-01 3.156122e-01
    outer loop
      vertex   2.319418e+00 1.451354e+00 2.449999e+00
      vertex   2.626476e+00 3.000000e+00 -1.258235e+00
      vertex   1.970772e+00 2.233897e+00 1.733818e+00
    endloop
  endfacet
  facet normal 7.213120e-01 6.158491e-01 3.169209e-01
    outer loop
      vertex   2.319418e+00 1.451354e+00 2.449999e+00
      vertex   4.000000e+00 2.545739e+00 -3.501644e+00
      vertex   2.626476e+00 3.000000e+00 -1.258235e+00
    endloop
  endfacet
  facet normal 8.943662e-01 3.209898e-01 3.115682e-01
    outer loop
      vertex   2.673096e+00 4.659089e-01 2.449999e+00
      vertex   4.000000e+00 2.545739e+00 -3.501644e+00
      vertex   2.319418e+00 1.451354e+00 2.449999e+00
    endloop
  endfacet
  facet normal 9.112300e-01 2.808513e-01 3.013013e-01
    outer loop
      vertex   4.000000e+00 3.046715e-01 -1.412683e+00
      vertex   4.000000e+00 2.545739e+00 -3.501644e+00
      vertex   2.673096e+00 4.659089e-01 2.449999e+00
    endloop
  endfacet
  facet normal 9.451967e-01 -2.333162e-02 3.256668e-01
    outer loop
      vertex   2.837982e+00 -7.099229e-01 1.887205e+00
      vertex   4.000000e+00 3.046715e-01 -1.412683e+00
      vertex   2.673096e+00 4.659089e-01 2.449999e+00
    endloop
  endfacet
  facet normal 9.476657e-01 -8.071770e-02 3.088921e-01
    outer loop
      vertex   2.837982e+00 -7.099229e-01 1.887205e+00
      vertex   3.826250e+00 -1.151825e+00 -1.260228e+00
      vertex   4.000000e+00 3.046715e-01 -1.412683e+00
    endloop
  endfacet
  facet normal 9.008467e-01 4.327774e-01 3.433556e-02
    outer loop
      vertex   1.898457e+00 1.994574e+00 6.647637e+00
      vertex   2.319418e+00 1.451354e+00 2.449999e+00
      vertex   1.970772e+00 2.233897e+00 1.733818e+00
    endloop
  endfacet
  facet normal 8.441587e-01 5.358747e-01 1.530870e-02
    outer loop
      vertex   2.466121e+00 1.131694e+00 5.550001e+00
      vertex   2.319418e+00 1.451354e+00 2.449999e+00
      vertex   1.898457e+00 1.994574e+00 6.647637e+00
    endloop
  endfacet
  facet normal 9.411720e-01 3.377885e-01 -9.708220e-03
    outer loop
      vertex   2.466121e+00 1.131694e+00 5.550001e+00
      vertex   2.673096e+00 4.659089e-01 2.449999e+00
      vertex   2.319418e+00 1.451354e+00 2.449999e+00
    endloop
  endfacet
  facet normal 9.668094e-01 2.553139e-01 9.716490e-03
    outer loop
      vertex   2.733478e+00 1.192821e-01 5.550001e+00
      vertex   2.673096e+00 4.659089e-01 2.449999e+00
      vertex   2.466121e+00 1.131694e+00 5.550001e+00
    endloop
  endfacet
  facet normal 9.900679e-01 1.405445e-01 -3.569471e-03
    outer loop
      vertex   2.733478e+00 1.192821e-01 5.550001e+00
      vertex   2.837982e+00 -7.099229e-01 1.887205e+00
      vertex   2.673096e+00 4.659089e-01 2.449999e+00
    endloop
  endfacet
  facet normal 9.995967e-01 1.171780e-02 2.586694e-02
    outer loop
      vertex   2.703155e+00 -5.709051e-01 7.034441e+00
      vertex   2.837982e+00 -7.099229e-01 1.887205e+00
      vertex   2.733478e+00 1.192821e-01 5.550001e+00
    endloop
  endfacet
  facet normal 8.240083e-01 5.662591e-01 -1.899850e-02
    outer loop
      vertex   1.975750e+00 1.994574e+00 1.000000e+01
      vertex   2.466121e+00 1.131694e+00 5.550001e+00
      vertex   1.898457e+00 1.994574e+00 6.647637e+00
    endloop
  endfacet
  facet normal 8.647312e-01 5.022306e-01 -2.095510e-03
    outer loop
      vertex   2.574251e+00 9.640846e-01 1.000000e+01
      vertex   2.466121e+00 1.131694e+00 5.550001e+00
      vertex   1.975750e+00 1.994574e+00 1.000000e+01
    endloop
  endfacet
  facet normal 9.938929e-01 -9.631889e-02 5.384819e-02
    outer loop
      vertex   2.733478e+00 1.192821e-01 5.550001e+00
      vertex   2.574251e+00 9.640846e-01 1.000000e+01
      vertex   2.408897e+00 -7.430196e-01 9.998482e+00
    endloop
  endfacet
  facet normal 9.667620e-01 2.553013e-01 -1.387534e-02
    outer loop
      vertex   2.466121e+00 1.131694e+00 5.550001e+00
      vertex   2.574251e+00 9.640846e-01 1.000000e+01
      vertex   2.733478e+00 1.192821e-01 5.550001e+00
    endloop
  endfacet
  facet normal 9.760066e-01 1.891395e-01 1.078769e-01
    outer loop
      vertex   2.408897e+00 -7.430196e-01 9.998482e+00
      vertex   2.703155e+00 -5.709051e-01 7.034441e+00
      vertex   2.733478e+00 1.192821e-01 5.550001e+00
    endloop
  endfacet
  facet normal -9.005125e-03 -9.992164e-01 3.854192e-02
    outer loop
      vertex   -1.593754e+00 -2.245353e+00 6.641641e+00
      vertex   -1.809047e+00 -2.439293e+00 1.563371e+00
      vertex   -2.219879e-01 -2.457909e+00 1.451554e+00
    endloop
  endfacet
  facet normal 0.000000e+00 -1.000000e+00 0.000000e+00
    outer loop
      vertex   -1.685318e+00 -2.245353e+00 1.000000e+01
      vertex   -4.288364e-01 -2.245353e+00 4.681576e+00
      vertex   -3.153963e-01 -2.245353e+00 1.000000e+01
    endloop
  endfacet
  facet normal 0.000000e+00 -1.000000e+00 0.000000e+00
    outer loop
      vertex   -1.593754e+00 -2.245353e+00 6.641641e+00
      vertex   -4.288364e-01 -2.245353e+00 4.681576e+00
      vertex   -1.685318e+00 -2.245353e+00 1.000000e+01
    endloop
  endfacet
  facet normal 1.228222e-01 -9.897405e-01 7.299649e-02
    outer loop
      vertex   -2.219879e-01 -2.457909e+00 1.451554e+00
      vertex   -4.288364e-01 -2.245353e+00 4.681576e+00
      vertex   -1.593754e+00 -2.245353e+00 6.641641e+00
    endloop
  endfacet
  facet normal -4.109051e-04 -9.873512e-01 1.585479e-01
    outer loop
      vertex   -1.809047e+00 -2.439293e+00 1.563371e+00
      vertex   7.183855e-01 -3.000000e+00 -1.921863e+00
      vertex   -2.219879e-01 -2.457909e+00 1.451554e+00
    endloop
  endfacet
  facet normal 1.395070e-02 -9.855727e-01 1.686765e-01
    outer loop
      vertex   -2.820549e+00 -3.000000e+00 -1.629169e+00
      vertex   7.183855e-01 -3.000000e+00 -1.921863e+00
      vertex   -1.809047e+00 -2.439293e+00 1.563371e+00
    endloop
  endfacet
  facet normal 4.662113e-01 -8.839371e-01 3.608552e-02
    outer loop
      vertex   1.279277e+00 -1.337282e+00 6.657521e+00
      vertex   2.837982e+00 -7.099229e-01 1.887205e+00
      vertex   2.703155e+00 -5.709051e-01 7.034441e+00
    endloop
  endfacet
  facet normal 4.905661e-01 -8.701969e-01 4.585048e-02
    outer loop
      vertex   1.279277e+00 -1.337282e+00 6.657521e+00
      vertex   -2.219879e-01 -2.457909e+00 1.451554e+00
      vertex   2.837982e+00 -7.099229e-01 1.887205e+00
    endloop
  endfacet
  facet normal 3.890021e-01 -9.172817e-01 8.527424e-02
    outer loop
      vertex   1.279277e+00 -1.337282e+00 6.657521e+00
      vertex   -4.288364e-01 -2.245353e+00 4.681576e+00
      vertex   -2.219879e-01 -2.457909e+00 1.451554e+00
    endloop
  endfacet
  facet normal 4.914583e-01 -8.278146e-01 2.705398e-01
    outer loop
      vertex   1.724202e+00 -2.008721e+00 -6.366450e-02
      vertex   3.826250e+00 -1.151825e+00 -1.260228e+00
      vertex   2.837982e+00 -7.099229e-01 1.887205e+00
    endloop
  endfacet
  facet normal 4.374314e-01 -8.434645e-01 3.118036e-01
    outer loop
      vertex   1.724202e+00 -2.008721e+00 -6.366450e-02
      vertex   2.837982e+00 -7.099229e-01 1.887205e+00
      vertex   -2.219879e-01 -2.457909e+00 1.451554e+00
    endloop
  endfacet
  facet normal 4.773354e-01 -8.476768e-01 2.315057e-01
    outer loop
      vertex   2.794539e+00 -2.029587e+00 -2.346968e+00
      vertex   3.826250e+00 -1.151825e+00 -1.260228e+00
      vertex   1.724202e+00 -2.008721e+00 -6.366450e-02
    endloop
  endfacet
  facet normal 4.493016e-01 -8.671852e-01 2.147509e-01
    outer loop
      vertex   2.794539e+00 -2.029587e+00 -2.346968e+00
      vertex   7.183855e-01 -3.000000e+00 -1.921863e+00
      vertex   2.000000e+00 -3.000000e+00 -4.603256e+00
    endloop
  endfacet
  facet normal 4.495783e-01 -8.660637e-01 2.186621e-01
    outer loop
      vertex   1.724202e+00 -2.008721e+00 -6.366450e-02
      vertex   7.183855e-01 -3.000000e+00 -1.921863e+00
      vertex   2.794539e+00 -2.029587e+00 -2.346968e+00
    endloop
  endfacet
  facet normal 6.482033e-01 -7.614673e-01 -3.414906e-04
    outer loop
      vertex   2.794539e+00 -2.029587e+00 -2.346968e+00
      vertex   4.000000e+00 -1.000000e+00 -1.000000e+01
      vertex   3.826250e+00 -1.151825e+00 -1.260228e+00
    endloop
  endfacet
  facet normal 7.070135e-01 -7.070134e-01 1.624780e-02
    outer loop
      vertex   2.794539e+00 -2.029587e+00 -2.346968e+00
      vertex   2.000000e+00 -3.000000e+00 -1.000000e+01
      vertex   4.000000e+00 -1.000000e+00 -1.000000e+01
    endloop
  endfacet
  facet normal 7.737364e-01 -6.335077e-01 0.000000e+00
    outer loop
      vertex   2.000000e+00 -3.000000e+00 -4.603256e+00
      vertex   2.000000e+00 -3.000000e+00 -1.000000e+01
      vertex   2.794539e+00 -2.029587e+00 -2.346968e+00
    endloop
  endfacet
  facet normal 4.003440e-01 -8.807111e-01 2.531258e-01
    outer loop
      vertex   7.183855e-01 -3.000000e+00 -1.921863e+00
      vertex   1.724202e+00 -2.008721e+00 -6.366450e-02
      vertex   -2.219879e-01 -2.457909e+00 1.451554e+00
    endloop
  endfacet
  facet normal 4.785679e-01 -8.779912e-01 -1.020769e-02
    outer loop
      vertex   -3.153963e-01 -2.245353e+00 1.000000e+01
      vertex   -4.288364e-01 -2.245353e+00 4.681576e+00
      vertex   1.279277e+00 -1.337282e+00 6.657521e+00
    endloop
  endfacet
  facet normal 4.762953e-01 -8.792086e-01 -1.162268e-02
    outer loop
      vertex   2.703155e+00 -5.709051e-01 7.034441e+00
      vertex   -3.153963e-01 -2.245353e+00 1.000000e+01
      vertex   1.279277e+00 -1.337282e+00 6.657521e+00
    endloop
  endfacet
  facet normal 4.828955e-01 -8.756731e-01 -2.908220e-03
    outer loop
      vertex   2.408897e+00 -7.430196e-01 9.998482e+00
      vertex   -3.153963e-01 -2.245353e+00 1.000000e+01
      vertex   2.703155e+00 -5.709051e-01 7.034441e+00
    endloop
  endfacet
  facet normal -0.000000e+00 0.000000e+00 1.000000e+00
    outer loop
      vertex   2.477026e-02 1.994574e+00 1.000000e+01
      vertex   2.574251e+00 9.640846e-01 1.000000e+01
      vertex   1.975750e+00 1.994574e+00 1.000000e+01
    endloop
  endfacet
  facet normal 0.000000e+00 0.000000e+00 1.000000e+00
    outer loop
      vertex   -3.153963e-01 -2.245353e+00 1.000000e+01
      vertex   -2.562742e+00 -9.942593e-01 1.000000e+01
      vertex   -1.685318e+00 -2.245353e+00 1.000000e+01
    endloop
  endfacet
  facet normal 2.799458e-04 5.028679e-04 9.999998e-01
    outer loop
      vertex   2.408897e+00 -7.430196e-01 9.998482e+00
      vertex   -2.562742e+00 -9.942593e-01 1.000000e+01
      vertex   -3.153963e-01 -2.245353e+00 1.000000e+01
    endloop
  endfacet
  facet normal -3.205172e-07 6.048788e-03 9.999817e-01
    outer loop
      vertex   -2.802013e+00 1.732064e-01 9.992938e+00
      vertex   -2.562742e+00 -9.942593e-01 1.000000e+01
      vertex   2.408897e+00 -7.430196e-01 9.998482e+00
    endloop
  endfacet
  facet normal -3.459088e-04 -8.557955e-04 9.999996e-01
    outer loop
      vertex   2.477026e-02 1.994574e+00 1.000000e+01
      vertex   2.408897e+00 -7.430196e-01 9.998482e+00
      vertex   2.574251e+00 9.640846e-01 1.000000e+01
    endloop
  endfacet
  facet normal -1.371387e-03 -1.748867e-03 9.999975e-01
    outer loop
      vertex   -2.802013e+00 1.732064e-01 9.992938e+00
      vertex   2.408897e+00 -7.430196e-01 9.998482e+00
      vertex   2.477026e-02 1.994574e+00 1.000000e+01
    endloop
  endfacet
  facet normal 0.000000e+00 1.000000e+00 0.000000e+00
    outer loop
      vertex   1.975750e+00 1.994574e+00 1.000000e+01
      vertex   1.142240e-01 1.994574e+00 5.345199e+00
      vertex   2.477026e-02 1.994574e+00 1.000000e+01
    endloop
  endfacet
  facet normal 0.000000e+00 1.000000e+00 -0.000000e+00
    outer loop
      vertex   1.898457e+00 1.994574e+00 6.647637e+00
      vertex   1.142240e-01 1.994574e+00 5.345199e+00
      vertex   1.975750e+00 1.994574e+00 1.000000e+01
    endloop
  endfacet
  facet normal -3.511228e-02 9.982251e-01 4.810094e-02
    outer loop
      vertex   1.970772e+00 2.233897e+00 1.733818e+00
      vertex   1.142240e-01 1.994574e+00 5.345199e+00
      vertex   1.898457e+00 1.994574e+00 6.647637e+00
    endloop
  endfacet
  facet normal -5.218239e-02 9.978639e-01 3.930155e-02
    outer loop
      vertex   8.730871e-02 2.122394e+00 2.064119e+00
      vertex   1.142240e-01 1.994574e+00 5.345199e+00
      vertex   1.970772e+00 2.233897e+00 1.733818e+00
    endloop
  endfacet
  facet normal -4.801690e-04 9.482957e-01 3.173878e-01
    outer loop
      vertex   1.970772e+00 2.233897e+00 1.733818e+00
      vertex   -7.240056e-02 2.890059e+00 -2.297648e-01
      vertex   8.730871e-02 2.122394e+00 2.064119e+00
    endloop
  endfacet
  facet normal 5.977009e-02 9.637911e-01 2.598735e-01
    outer loop
      vertex   2.626476e+00 3.000000e+00 -1.258235e+00
      vertex   -7.240056e-02 2.890059e+00 -2.297648e-01
      vertex   1.970772e+00 2.233897e+00 1.733818e+00
    endloop
  endfacet
  facet normal -2.350032e-02 9.987065e-01 4.509038e-02
    outer loop
      vertex   2.626476e+00 3.000000e+00 -1.258235e+00
      vertex   -1.413425e+00 3.000000e+00 -3.363760e+00
      vertex   -7.240056e-02 2.890059e+00 -2.297648e-01
    endloop
  endfacet
  facet normal 7.883151e-02 9.853464e-01 -1.512551e-01
    outer loop
      vertex   4.000000e+00 2.545739e+00 -3.501644e+00
      vertex   -1.413425e+00 3.000000e+00 -3.363760e+00
      vertex   2.626476e+00 3.000000e+00 -1.258235e+00
    endloop
  endfacet
  facet normal 8.517497e-02 9.939405e-01 6.948036e-02
    outer loop
      vertex   4.000000e+00 3.000000e+00 -1.000000e+01
      vertex   -1.413425e+00 3.000000e+00 -3.363760e+00
      vertex   4.000000e+00 2.545739e+00 -3.501644e+00
    endloop
  endfacet
  facet normal 0.000000e+00 1.000000e+00 0.000000e+00
    outer loop
      vertex   -2.000000e+00 3.000000e+00 -1.000000e+01
      vertex   -1.413425e+00 3.000000e+00 -3.363760e+00
      vertex   4.000000e+00 3.000000e+00 -1.000000e+01
    endloop
  endfacet
  facet normal -5.402152e-01 8.414629e-01 -1.038159e-02
    outer loop
      vertex   1.142240e-01 1.994574e+00 5.345199e+00
      vertex   -1.298241e+00 1.111444e+00 7.263387e+00
      vertex   2.477026e-02 1.994574e+00 1.000000e+01
    endloop
  endfacet
  facet normal -5.360836e-01 8.441490e-01 -5.178584e-03
    outer loop
      vertex   -2.802013e+00 1.732064e-01 9.992938e+00
      vertex   -1.298241e+00 1.111444e+00 7.263387e+00
      vertex   -2.747475e+00 1.837362e-01 6.063679e+00
    endloop
  endfacet
  facet normal -5.415897e-01 8.405900e-01 -9.435386e-03
    outer loop
      vertex   2.477026e-02 1.994574e+00 1.000000e+01
      vertex   -1.298241e+00 1.111444e+00 7.263387e+00
      vertex   -2.802013e+00 1.732064e-01 9.992938e+00
    endloop
  endfacet
  facet normal -5.900558e-01 8.065478e-01 3.626078e-02
    outer loop
      vertex   1.142240e-01 1.994574e+00 5.345199e+00
      vertex   8.730871e-02 2.122394e+00 2.064119e+00
      vertex   -1.304326e+00 1.089047e+00 2.403376e+00
    endloop
  endfacet
  facet normal -4.339037e-01 8.994920e-01 5.139788e-02
    outer loop
      vertex   -2.747475e+00 1.837362e-01 6.063679e+00
      vertex   -1.304326e+00 1.089047e+00 2.403376e+00
      vertex   -2.877221e+00 3.578758e-01 1.920813e+00
    endloop
  endfacet
  facet normal -5.372437e-01 8.434209e-01 -3.214177e-03
    outer loop
      vertex   -1.298241e+00 1.111444e+00 7.263387e+00
      vertex   -1.304326e+00 1.089047e+00 2.403376e+00
      vertex   -2.747475e+00 1.837362e-01 6.063679e+00
    endloop
  endfacet
  facet normal -5.332933e-01 8.459242e-01 -3.230660e-03
    outer loop
      vertex   -1.298241e+00 1.111444e+00 7.263387e+00
      vertex   1.142240e-01 1.994574e+00 5.345199e+00
      vertex   -1.304326e+00 1.089047e+00 2.403376e+00
    endloop
  endfacet
  facet normal -4.526777e-01 8.356196e-01 3.111637e-01
    outer loop
      vertex   -7.240056e-02 2.890059e+00 -2.297648e-01
      vertex   -1.587342e+00 1.597964e+00 1.036192e+00
      vertex   8.730871e-02 2.122394e+00 2.064119e+00
    endloop
  endfacet
  facet normal -4.302207e-01 8.366270e-01 3.390656e-01
    outer loop
      vertex   -1.715047e+00 2.281841e+00 -8.132759e-01
      vertex   -1.587342e+00 1.597964e+00 1.036192e+00
      vertex   -7.240056e-02 2.890059e+00 -2.297648e-01
    endloop
  endfacet
  facet normal -4.207302e-01 8.410447e-01 3.400439e-01
    outer loop
      vertex   -3.591033e+00 1.315552e+00 -7.444379e-01
      vertex   -1.587342e+00 1.597964e+00 1.036192e+00
      vertex   -1.715047e+00 2.281841e+00 -8.132759e-01
    endloop
  endfacet
  facet normal -4.721861e-01 7.817313e-01 4.073530e-01
    outer loop
      vertex   -2.877221e+00 3.578758e-01 1.920813e+00
      vertex   -1.587342e+00 1.597964e+00 1.036192e+00
      vertex   -3.591033e+00 1.315552e+00 -7.444379e-01
    endloop
  endfacet
  facet normal -4.460838e-01 8.782990e-01 1.720469e-01
    outer loop
      vertex   -2.897219e+00 2.085207e+00 -2.874598e+00
      vertex   -3.591033e+00 1.315552e+00 -7.444379e-01
      vertex   -1.715047e+00 2.281841e+00 -8.132759e-01
    endloop
  endfacet
  facet normal -4.700376e-01 8.625475e-01 1.872871e-01
    outer loop
      vertex   -1.715047e+00 2.281841e+00 -8.132759e-01
      vertex   -1.413425e+00 3.000000e+00 -3.363760e+00
      vertex   -2.897219e+00 2.085207e+00 -2.874598e+00
    endloop
  endfacet
  facet normal -5.133776e-01 8.569623e-01 4.537726e-02
    outer loop
      vertex   -1.413425e+00 3.000000e+00 -3.363760e+00
      vertex   -2.000000e+00 3.000000e+00 -1.000000e+01
      vertex   -2.897219e+00 2.085207e+00 -2.874598e+00
    endloop
  endfacet
  facet normal -4.027532e-01 8.923678e-01 2.036409e-01
    outer loop
      vertex   -1.413425e+00 3.000000e+00 -3.363760e+00
      vertex   -1.715047e+00 2.281841e+00 -8.132759e-01
      vertex   -7.240056e-02 2.890059e+00 -2.297648e-01
    endloop
  endfacet
  facet normal -4.851556e-01 7.818986e-01 3.914826e-01
    outer loop
      vertex   -1.304326e+00 1.089047e+00 2.403376e+00
      vertex   8.730871e-02 2.122394e+00 2.064119e+00
      vertex   -1.587342e+00 1.597964e+00 1.036192e+00
    endloop
  endfacet
  facet normal -4.839317e-01 7.826445e-01 3.915069e-01
    outer loop
      vertex   -1.587342e+00 1.597964e+00 1.036192e+00
      vertex   -2.877221e+00 3.578758e-01 1.920813e+00
      vertex   -1.304326e+00 1.089047e+00 2.403376e+00
    endloop
  endfacet
endsolid
